<?xml version="1.0" encoding="UTF-8" standalone="no"?>
<svg
   xmlns:dc="http://purl.org/dc/elements/1.1/"
   xmlns:cc="http://creativecommons.org/ns#"
   xmlns:rdf="http://www.w3.org/1999/02/22-rdf-syntax-ns#"
   xmlns:svg="http://www.w3.org/2000/svg"
   xmlns="http://www.w3.org/2000/svg"
   xmlns:sodipodi="http://sodipodi.sourceforge.net/DTD/sodipodi-0.dtd"
   xmlns:inkscape="http://www.inkscape.org/namespaces/inkscape"
   viewBox="0 0 335 72.3"
   preserveAspectRatio="xMinYMin meet"
   class="logo-usc-responsive"
   version="1.1"
   id="svg20"
   sodipodi:docname="usc.svg"
   inkscape:version="0.92.2 5c3e80d, 2017-08-06">
  <metadata
     id="metadata26">
    <rdf:RDF>
      <cc:Work
         rdf:about="">
        <dc:format>image/svg+xml</dc:format>
        <dc:type
           rdf:resource="http://purl.org/dc/dcmitype/StillImage" />
      </cc:Work>
    </rdf:RDF>
  </metadata>
  <defs
     id="defs24" />
  <sodipodi:namedview
     pagecolor="#ffffff"
     bordercolor="#666666"
     borderopacity="1"
     objecttolerance="10"
     gridtolerance="10"
     guidetolerance="10"
     inkscape:pageopacity="0"
     inkscape:pageshadow="2"
     inkscape:window-width="1446"
     inkscape:window-height="815"
     id="namedview22"
     showgrid="false"
     inkscape:measure-start="0,0"
     inkscape:measure-end="0,0"
     inkscape:zoom="2.7355534"
     inkscape:cx="78.664639"
     inkscape:cy="39.776564"
     inkscape:window-x="0"
     inkscape:window-y="0"
     inkscape:window-maximized="0"
     inkscape:current-layer="svg20" />
  <title
     id="title2">University of Southern California</title>
  <path
     class="text-usc-acronym"
     d="M66.4 9c0-1.2-.3-1.8-1.2-1.8h-1.7c-.2 0-.3-.1-.3-.3V6c0-.2.1-.3.4-.3.4 0 2.1.1 5.6.1 3.1 0 4.8-.1 5.3-.1.2 0 .3.1.3.3v.9c0 .2-.1.3-.3.3H73c-1.1 0-1.8.7-1.8 1.4 0 .4-.1 2.6-.1 4.8v4.5c0 1.8 0 4.4.1 5.6.1 1.7.4 3.4 1.3 4.5 1.2 1.7 3.2 2.3 5 2.3 1.7 0 3.7-.7 4.9-1.8 1.4-1.4 2.1-3.5 2.1-6.2v-6.6c0-2.9-.3-6.2-.4-7-.1-1-.7-1.6-1.5-1.6h-1.3c-.2 0-.3-.1-.3-.3V6c0-.2.1-.3.3-.3.4 0 2.1.1 4.5.1 2.3 0 3.4-.1 3.7-.1.3 0 .4.1.4.3v.8c0 .2 0 .3-.2.3h-1.3c-1.3 0-1.5 1-1.5 1.4-.1.4-.1 5.6-.1 6 0 .5-.1 6.9-.2 8.4-.2 3-1.1 5.3-3.1 7-1.5 1.4-3.9 2.3-6.7 2.3-1.8 0-3.9-.3-5.3-.9-2.1-.9-3.6-2.6-4.3-4.9-.5-1.6-.7-4-.7-8.8L66.4 9zM90.8 23.6c.1 0 .2.1.2.3.1 1.2.4 2.6 1.4 4.2 1.1 1.8 3 2.6 4.8 2.6 2 0 4.8-1.2 4.8-4.3 0-3.4-1.5-4.5-5.4-5.9-1.2-.5-3.6-1.5-5.3-3.1-1.2-1.2-1.8-3-1.8-5.2 0-2.1.8-3.7 2.6-5.1 1.5-1.2 3.1-1.8 5.2-1.8 2.4 0 3.9.6 4.6.9.4.1.6.1.8-.1l.5-.5c.1-.1.3-.2.5-.2s.3.2.3.6c0 .6.6 5.7.6 6.1 0 .1-.1.2-.2.3l-.6.2c-.1 0-.3 0-.4-.2-.4-1-1-2.5-2.3-3.9-1-1-2.1-1.5-3.8-1.5-2.9 0-4.1 2.3-4.1 3.7 0 1.2.1 2.3 1 3.3 1 1 3 1.8 4.5 2.3 2.1.7 3.9 1.4 5.3 2.9 1.2 1.2 1.8 2.8 1.8 5.2 0 4.5-2.9 8.1-7.8 8.1-3 0-4.8-.7-6.2-1.8-.4-.3-.7-.4-.9-.4-.2 0-.4.3-.6.7s-.4.4-.7.4-.4-.2-.4-.6c.1-.4.6-6.4.7-6.8 0-.2.1-.3.2-.3l.7-.1zM131.5 25.8c.1.1.1.2.1.4-2.2 3.2-5.7 6.2-10.9 6.2-4.7 0-7.3-1.4-9.6-3.4-2.7-2.4-4-6.7-4-9.9 0-3.6 1.2-7 3.7-9.8 2-2.1 5.1-3.9 9.5-3.9 3.4 0 6.1 1 7.4 1.8.5.3.7.3.7 0l.3-1c.1-.2.1-.2.6-.2s.5.1.5.6c0 .7.7 6.5.9 7.6 0 .2 0 .3-.1.4l-.7.2c-.2.1-.3-.1-.4-.4-.4-1.3-1.3-3.1-2.9-4.8-1.6-1.5-3.5-2.7-6.4-2.7-5.9 0-8.3 5.3-8.3 10.6 0 2.3.7 6.6 3.4 9.5 2.4 2.6 4.5 2.9 6.3 2.9 4 0 7.2-2 8.8-4.2.2-.3.3-.4.4-.3l.7.4z"
     id="path6"
     style="fill:#990000;fill-opacity:1" />
  <g
     id="g12">
    <path
       class="text-usc-full"
       d="M142.9 31.5c-2.5-1-3.8-2.6-4.4-4.9-.4-1.6-.6-4.1-.6-8.9V9c0-1.3-.3-1.9-1.4-1.9h-1.7c-.2 0-.3-.1-.3-.3V6c0-.2 0-.3.3-.3.4 0 2.2.1 5 .1 2.9 0 4.6-.1 5-.1.3 0 .3.1.3.2v1c0 .2 0 .3-.3.3H143c-1.1 0-1.7.7-1.8 1.5 0 .3-.1 2.9-.1 4.8v2.4c0 1.9.1 6.6.2 7.8 0 1.7.3 3.4 1.2 4.7 1.4 2 3.7 2.6 5.8 2.6 2.1 0 4.2-.7 5.5-2 1.4-1.5 1.9-3.7 1.9-6.5v-7.8c0-2.8-.1-4.9-.2-5.8-.1-1-.7-1.6-1.6-1.6h-1.6c-.2 0-.3-.1-.3-.3V6c0-.2 0-.3.3-.3.4 0 2.1.1 4.5.1 2.5 0 3.7-.1 4-.1.3 0 .4.1.4.3v.8c0 .2 0 .4-.2.4h-1.5c-1.4 0-1.5 1-1.6 1.5.1.3.1 5.5.1 6s-.1 6.9-.2 8.4c-.2 3-1 5.3-3.1 7.1-1.5 1.4-3.7 2.2-6.9 2.2-1.8-.1-3.7-.3-4.9-.9M174.4 29.8c0 .6.3.8.8.8h1.2c.3 0 .4.1.4.3v.6c0 .3-.1.4-.3.4-.3 0-1.4-.1-3.5-.1-1.9 0-3 .1-3.3.1-.2 0-.3-.1-.3-.4v-.6c0-.3.1-.3.5-.3h1.1c.4 0 .7-.2.7-.8 0-1 .1-2.1.1-3.1v-4.8c0-1.5 0-2.5-1.1-3.3-.9-.7-1.8-.7-2.7-.7-.6 0-1.9.3-3 1.4-.7.8-.8 1.8-.8 2.5v7.6c0 1 .1 1.2.9 1.2h.9c.3 0 .4.1.4.4v.6c0 .2-.1.3-.3.3-.3 0-1.2-.1-3.2-.1-1.9 0-3 .1-3.3.1-.2 0-.3-.1-.3-.3v-.7c0-.2.1-.3.4-.3h1.1c.5 0 .7-.1.7-.7v-8.6c0-1.1-.6-1.7-1.5-2.2l-.3-.1c-.3-.1-.3-.2-.3-.3v-.2c0-.2.1-.3.3-.4l3.2-1.8c.3-.1.5-.3.7-.3.2 0 .3.1.3.4l.3 2.2h.1c1.1-1.3 3.2-2.7 5-2.7 1.1 0 2.2.2 3.1.8 1.1.7 2 2.6 2 3.5v9.6zM180.5 21.1c0-1.2-.2-1.9-2.1-2.2-.3 0-.3-.1-.3-.3v-.3c0-.1.1-.2.3-.3 1.2-.4 2.6-1 4-1.8.3-.1.5-.2.7-.2.2 0 .2.2.2.4-.1.6-.1 2.9-.1 6v7.1c.1.7.2 1 .6 1h1.7c.3 0 .4.1.4.3v.6c0 .3-.1.4-.3.4-.3 0-2-.1-3.5-.1-2.1 0-3.6.1-4 .1-.2 0-.3-.1-.3-.3v-.7c0-.2.1-.3.4-.3h1.8c.4 0 .6-.1.6-.7v-3.3l-.1-5.4zm-1.6-11.2c0-.9.8-1.9 2.2-1.9 1.3 0 1.9 1 1.9 1.8 0 1-.7 2-2.1 2-.8 0-2-.7-2-1.9M193.5 28.4h.1c.6-1.4 3.2-7.7 3.5-9.1.3-1 0-1.6-.7-1.6h-.7c-.1 0-.1-.2-.1-.4v-.7c0-.2.1-.3.2-.3.5 0 1.3.1 2.9.1 1.4 0 2.3-.1 2.6-.1.3 0 .3 0 .3.3v.6c0 .3 0 .4-.2.4h-.7c-.4 0-.8.1-1.1.4-.5.5-2.4 4.5-2.9 5.9-.4 1.1-3.2 7.3-3.3 7.5-.3.5-.5.8-.9.8s-.6-.3-.8-.8c-.1-.2-2.7-7.1-2.9-7.4-.1-.3-1.6-4.5-1.9-5.1-.5-1.1-.8-1.4-1.5-1.4h-.7c-.2 0-.2-.1-.2-.4v-.7c0-.3.1-.3.4-.3.4 0 1 .1 3.1.1 1.9 0 2.9-.1 3.3-.1.3 0 .4.1.4.3v.7c0 .2 0 .4-.3.4h-.7c-.4 0-.7.2-.7.7 0 .7 1 3.7 1.2 4.3.4.9 1.9 5.1 2.3 5.9M203.5 22c-.1.3-.1.9-.1 1.8 0 3.6 2.3 6.3 5.2 6.3 2.2 0 3.8-1.3 4.4-2.5.1-.1.2-.2.3-.2l.5.3c.1 0 .2.1 0 .5-.7 1.5-2.6 4-5.8 4-2.1 0-4.4-.6-5.8-2.6-1.3-1.9-1.6-3.2-1.6-5.8 0-1.4.4-3.9 2.3-5.8 1.6-1.6 3.4-1.9 5.2-1.9 4.2 0 5.4 4 5.4 5.4 0 .5-.4.6-1 .6l-9-.1zm5.8-1.1c.7 0 1-.2 1-.5 0-.8-.4-3.3-2.8-3.3-1.6 0-3.1 1.1-3.8 3.8h5.6zM217 22c0-1.9-.3-2.2-1.3-2.8l-.7-.4c-.2-.1-.3-.1-.3-.3v-.2c0-.1.1-.2.3-.3l3.6-1.9c.2-.1.4-.1.5-.1.2 0 .3.2.3.4l.2 2.5h.1c1.1-1.7 2.8-3.2 4.4-3.2 1.2 0 1.9.8 1.9 1.6 0 1.1-.9 1.8-1.5 1.8-.4 0-.8-.1-1.1-.3-.3-.2-.7-.3-1.2-.3-.6 0-1.5.4-2.2 1.5-.2.4-.4 1.1-.4 1.2V29c0 1.1.3 1.5 1 1.5h1.7c.2 0 .3.1.3.3v.7c0 .2 0 .3-.2.3s-1.9-.1-3.9-.1c-2.3 0-3.8.1-4 .1-.1 0-.2-.1-.2-.4v-.6c0-.3.1-.3.4-.3h1.4c.5 0 .8-.2.8-.7v-4.4l.1-3.4zM226.9 31.1c-.2-.1-.2-.3-.2-.5l-.6-3.5c0-.2.1-.3.2-.3l.5-.1c.1 0 .3 0 .3.2l.9 1.8c.7 1.4 1.2 2.3 3.2 2.3 1.3 0 2.9-.8 2.9-2.5 0-1.6-.8-2.6-3.6-3.4-2.2-.6-4.3-1.8-4.3-4.7 0-2.5 2.4-4.5 5.1-4.5 1.8 0 2.7.4 3.4.8.5.3.6.4.7.7l.6 2.6c0 .1-.1.3-.3.3l-.4.1c-.1 0-.2 0-.3-.2l-1.2-1.7c-.4-.7-1.1-1.4-2.6-1.4-1.4 0-2.8.8-2.8 2.4 0 2.1 1.7 2.5 3.5 3 2.7.8 4.4 1.9 4.4 4.7 0 3-2.5 4.8-5.6 4.8-1.9.2-3.4-.5-3.8-.9M239.8 21.1c0-1.2-.2-1.9-2.1-2.2-.3 0-.3-.1-.3-.3v-.3c0-.1.1-.2.3-.3 1.2-.4 2.6-1 4-1.8.3-.1.5-.2.7-.2.2 0 .2.2.2.4-.1.6-.1 2.9-.1 6v7.1c.1.7.2 1 .6 1h1.7c.3 0 .4.1.4.3v.6c0 .3-.1.4-.3.4-.3 0-2-.1-3.5-.1-2.1 0-3.6.1-4 .1-.2 0-.3-.1-.3-.3v-.7c0-.2.1-.3.4-.3h1.8c.4 0 .5-.1.6-.7v-3.3l-.1-5.4zm-1.7-11.2c0-.9.8-1.9 2.2-1.9 1.3 0 1.9 1 1.9 1.8 0 1-.7 2-2.1 2-.7 0-2-.7-2-1.9M249.8 27.2c0 2.7 1.2 3.2 1.9 3.2.8 0 1.9-.1 2.4-.5.2-.1.3-.1.4.1l.2.3c.1.1 0 .3-.1.4-.4.4-1.9 1.5-4.1 1.5-1.8 0-3.6-1.7-3.6-3.1 0-1.5.1-4.7.1-5.2V23c0-.7 0-3.1.1-4.7H245c-.3 0-.5-.1-.5-.4s.2-.4.7-.7c.9-.5 3.7-3.4 4.2-4.6.1-.3.3-.4.5-.4.3 0 .4.3.4.6l-.2 3.6h5.1c.2 0 .3.2.3.3l-.4 1.3c0 .2-.1.3-.3.3h-4.7c-.1 1.7-.1 3.4-.1 5.1v3.8h-.2zM256.1 39.9c0-.8.8-1.4 1.7-1.4.7 0 1.4.3 1.7.4.3 0 .5 0 .8-.2.5-.7 2.4-4.8 2.9-6.3-.2-.9-4.1-12.3-4.4-13.1-.4-.9-.8-1.5-1.7-1.5h-1c-.3 0-.3-.1-.3-.3v-.7c0-.1 0-.3.3-.3s1.2.1 3.4.1c1.9 0 3-.1 3.4-.1.3 0 .3.1.3.3v.8c0 .2 0 .3-.2.3h-.7c-.4 0-.5.3-.5.8.1.8 2.6 8.9 3 9.7h.1c.4-.6 3.6-8.2 3.8-9.1.2-.9-.1-1.4-.6-1.4h-.6c-.2 0-.3-.1-.3-.3v-.7c0-.2 0-.3.2-.3.5 0 1.2.1 3 .1 1 0 1.8-.1 2.2-.1.2 0 .2.1.2.3v.7c0 .2 0 .3-.2.3h-.6c-.4 0-.9.2-1.3.7-.8 1-3.2 6.6-5.8 12.3-1.8 4.1-3.2 7.5-3.9 8.7-.5 1-1.2 2.4-3.1 2.4-1.1-.3-1.8-1-1.8-2.1M280.4 29.7c-1.7-2-2-3.4-2-6 0-1.9 1-4.2 3.2-5.9 1.9-1.5 3.7-1.8 4.9-1.8 2 0 4 1 5.1 2.1 1.6 1.7 2.5 3.6 2.5 6 0 4-3.6 8.1-8.1 8.1-1.8 0-4-.7-5.6-2.5m10.6-5.9c0-4.1-3-6.6-4.8-6.6-1 0-1.9.2-2.8 1.2-1.4 1.5-1.9 3-1.9 5.8 0 2.1.2 3.4 1.4 5.1.8 1.2 1.9 1.9 3.6 1.9 2.7-.1 4.5-3.5 4.5-7.4M297.8 18.2h-2.5c-.2 0-.3-.1-.2-.4l.1-1.1c0-.2.1-.3.4-.3h2.1v-.7c0-3.6 1-6 2.5-7.6 1.9-2.1 4-2.9 6-2.9 1.7 0 3.3.7 3.3 2.1 0 .9-1 1.6-1.5 1.6-.4 0-.7-.1-1-.2-.3-.2-.7-.7-.9-.8-.5-.6-1-.8-1.7-.8-1 0-1.9.3-2.7 1.3-1.4 1.7-1.3 4.9-1.3 7.5v.7h4.4c.3 0 .3.2.3.4l-.2 1.2c0 .1-.2.2-.5.2h-4V29.8c.1.6.2 1 1 1h2.1c.3 0 .4.1.4.3v.6c0 .3-.1.4-.3.4-.2 0-1.6-.1-4.4-.1-2 0-3.9.1-4.2.1-.2 0-.3-.1-.3-.3V31c0-.2.1-.3.4-.3h1.8c.7 0 .8-.4.9-1.3V18.2zM68.5 64.8c-.4-.3-.7-.4-.8-.4-.2 0-.4.3-.6.6-.2.4-.4.4-.7.4-.2 0-.4-.2-.3-.6.1-.9.5-5.6.6-6.6 0-.2.1-.2.3-.2h.5c.1 0 .2.1.2.3 0 1.2.1 2.4 1.3 4.2 1.1 1.7 3.1 2.7 5.1 2.7 2.2 0 5-1.4 5-4.7 0-3.8-2.7-5.2-5.6-6.2-1.1-.4-3.8-1.3-5.3-3-1.2-1.2-1.8-2.9-1.8-5.4 0-1.8 1.1-3.6 2.3-4.7 1.3-1.2 3.2-1.8 5.1-1.8 2.1 0 3.7.6 4.3.9.3.2.5.1.7 0l.5-.4c.2-.1.3-.2.5-.2s.3.3.3.6c0 1.3.5 5 .5 5.8 0 .2 0 .3-.2.3l-.4.1c-.1 0-.2 0-.2-.1-.3-1.1-.8-2.5-2.3-4.1-1-1.1-2.3-1.6-4-1.6-3.3 0-4.4 2.4-4.4 4.3 0 1 .2 2.2 1.1 3.2 1.1 1.1 3.1 1.9 4.2 2.2 2.5.8 4.6 1.4 5.9 3 1 1.1 1.6 2.6 1.6 5 0 4.3-2.6 8-7.5 8-2.6.3-4.4-.5-5.9-1.6M85.4 64.1c-1.7-2-2-3.4-2-6 0-1.9 1-4.2 3.2-5.9 1.9-1.5 3.7-1.8 4.9-1.8 2 0 4 1 5.1 2.1 1.6 1.7 2.5 3.6 2.5 6 0 4-3.6 8.1-8.1 8.1-1.8 0-4.1-.7-5.6-2.5M96 58.2c0-4.1-3-6.6-4.8-6.6-1 0-1.9.2-2.8 1.2-1.4 1.5-1.9 3-1.9 5.8 0 2.1.2 3.4 1.4 5.1.8 1.2 1.9 1.9 3.6 1.9 2.7-.1 4.5-3.5 4.5-7.4M114.2 58.7c0 1.8 0 3.6.1 4.3.1 1.1.5 1.3 1 1.3.2 0 .8 0 1.2-.1.3-.1.4 0 .4.1l.1.5c0 .2 0 .3-.2.3l-3.8 1.3c-.2.1-.4.2-.7.2-.1 0-.3-.1-.3-.4l-.3-2.1h-.1c-1 1.4-3.2 2.6-5 2.6-1 0-2.2-.1-3.4-1.7-1.5-1.9-1.4-3.2-1.4-7.2v-4.3c0-1-.5-1.3-1.4-1.4-.6 0-.8-.1-.8-.3v-.7c0-.2.1-.3.4-.3h3.3c.2 0 .4 0 .5-.1h.4c.3 0 .4.2.4.4 0 .3-.1 2.1-.1 4.2V58c0 1.5-.4 3.8.8 5.5.9 1.3 1.9 1.4 2.9 1.4s2.5-1 3.2-1.8c.1-.2.4-.7.4-1v-8.7c-.1-1-.7-1.2-1.6-1.3-.6 0-.8-.1-.8-.3v-.6c0-.3.1-.3.4-.3h3.4c.3 0 .4 0 .6-.1h.4c.2 0 .4.2.3.4 0 .3-.2 1.3-.2 4.9l-.1 2.6zM122.2 61.6c0 2.7 1.2 3.2 1.9 3.2.8 0 1.9-.1 2.4-.5.2-.1.3-.1.4.1l.2.3c.1.1 0 .3-.1.4-.4.4-1.9 1.5-4.1 1.5-1.8 0-3.6-1.7-3.6-3.1 0-1.5.1-4.7.1-5.2v-.8c0-.7 0-3.1.1-4.7h-2.2c-.3 0-.5-.1-.5-.4s.2-.4.7-.7c.9-.5 3.7-3.4 4.2-4.6.1-.3.3-.4.5-.4.3 0 .4.3.4.5l-.2 3.6h5.1c.2 0 .3.2.3.3l-.4 1.3c0 .2-.1.3-.3.3h-4.7c-.1 1.7-.1 3.4-.1 5.1l-.1 3.8zM130.7 46.2c0-2.2-.4-2.6-1.8-3.1l-.6-.2c-.2-.1-.3-.1-.3-.2v-.3c0-.1.1-.2.4-.4l3.8-2c.3-.1.6-.3.8-.3.2 0 .4.3.3.9-.1.6-.1 8.1-.1 9.9v2.3h.2c1.3-1.5 3.4-2.4 5-2.4 1.5 0 2.6.5 3.6 1.5 1.7 1.5 1.6 3.4 1.6 5.4v2.1c0 2.1.1 4.3.1 5 0 .4.6.5 1.4.5h.6c.3 0 .4.1.4.3v.6c0 .3-.1.4-.3.4-.3 0-1.4-.1-3.5-.1-1.8 0-3.1.1-3.4.1-.3 0-.3-.1-.3-.4v-.6c0-.2 0-.3.3-.3h.8c.6 0 1.4-.1 1.4-.7v-6.6c0-2.1-.1-3.5-1.2-4.5-.7-.7-1.5-1-2.4-1-1.1 0-2.4.4-3.4 1.5-.3.4-.7 1.1-.7 1.8v8c0 1.2.1 1.5.8 1.5h1.1c.3 0 .4.1.4.3v.6c0 .3-.1.4-.3.4-.3 0-1.8-.1-3.5-.1-1.8 0-3.2.1-3.6.1-.1 0-.3-.1-.3-.4v-.7c0-.3.1-.3.6-.3h.8c.6 0 1.1-.1 1.2-.6.1-.7.1-4.7.1-7.1V46.2zM149.3 56.4c-.1.3-.1.9-.1 1.8 0 3.6 2.3 6.3 5.2 6.3 2.2 0 3.8-1.3 4.4-2.5.1-.1.2-.2.3-.2l.5.3c.1 0 .2.1 0 .6-.7 1.5-2.6 4-5.8 4-2.1 0-4.4-.6-5.8-2.6-1.3-1.9-1.6-3.2-1.6-5.8 0-1.4.4-3.9 2.3-5.8 1.6-1.6 3.4-1.9 5.2-1.9 4.2 0 5.4 4 5.4 5.4 0 .5-.4.6-1 .6l-9-.2zm5.8-1.1c.7 0 1-.2 1-.5 0-.8-.4-3.3-2.8-3.3-1.6 0-3.2 1.1-3.8 3.8h5.6zM163.1 56.4c0-1.9-.3-2.2-1.3-2.8l-.7-.4c-.2-.1-.3-.1-.3-.3v-.2c0-.1.1-.2.3-.3l3.6-1.9c.2-.1.4-.1.5-.1.2 0 .3.2.3.4l.2 2.5h.1c1.1-1.7 2.8-3.2 4.4-3.2 1.2 0 1.9.8 1.9 1.6 0 1.1-.9 1.8-1.5 1.8-.4 0-.8-.1-1.1-.3-.3-.2-.7-.3-1.2-.3-.6 0-1.5.4-2.2 1.5-.2.4-.4 1.1-.4 1.2v7.7c0 1.1.3 1.5 1 1.5h1.7c.2 0 .3.1.3.3v.7c0 .2 0 .3-.2.3s-1.9-.1-3.9-.1c-2.3 0-3.8.1-4 .1-.1 0-.2-.1-.2-.4v-.6c0-.3.1-.3.4-.3h1.4c.6 0 .8-.2.8-.7v-4.4l.1-3.3zM187.7 64.2c0 .6.3.8.8.8h1.2c.3 0 .4.1.4.3v.6c0 .3-.1.4-.3.4-.3 0-1.4-.1-3.5-.1-1.9 0-3 .1-3.3.1-.2 0-.3-.1-.3-.4v-.6c0-.3.1-.3.5-.3h1.1c.4 0 .7-.2.7-.8 0-1 .1-2.1.1-3.1v-4.8c0-1.5 0-2.5-1.1-3.3-.9-.7-1.8-.7-2.7-.7-.6 0-1.9.3-3 1.4-.7.8-.8 1.8-.8 2.5v7.6c0 1 .1 1.2.9 1.2h.9c.3 0 .4.1.4.4v.6c0 .2-.1.3-.3.3-.3 0-1.2-.1-3.2-.1-1.9 0-3 .1-3.3.1-.2 0-.3-.1-.3-.3v-.7c0-.2.1-.3.4-.3h1.1c.5 0 .7-.1.7-.7v-8.6c0-1.1-.6-1.7-1.5-2.2l-.3-.1c-.3-.1-.3-.2-.3-.3v-.2c0-.2.1-.3.3-.4l3.1-1.8c.3-.1.5-.3.7-.3.2 0 .3.1.3.4l.3 2.2h.1c1.1-1.3 3.2-2.7 5-2.7 1.1 0 2.2.2 3.1.8 1.1.7 2 2.6 2 3.5l.1 9.6zM201.8 63.3c-2.6-2.5-3.9-6.7-3.9-10.3 0-3.4 1.1-6.9 3.7-9.7 1.9-2 5.2-3.7 9.2-3.7 3.3 0 6.1 1.2 7.4 2 .5.3.7.3.7 0l.3-1.1c.1-.2.1-.2.5-.2.3 0 .4.1.4.6 0 .7.7 6.1.9 7.1 0 .2 0 .3-.1.4l-.5.1c-.2 0-.3 0-.4-.3-.5-1.2-1.3-3-2.9-4.5-1.5-1.6-3.5-2.8-6.4-2.8-6.6 0-9.2 5.8-9.2 11.2 0 2.1.7 6.3 3.5 9.4 2.5 2.8 4.6 3.1 7 3.1 4.1 0 7.4-2.3 9.1-4.7.1-.2.2-.2.3-.1l.5.4c.1.1.2.1.1.3-2.2 3.2-5.8 6.2-10.9 6.2-4.4 0-7.1-1.4-9.3-3.4M233.8 61.8c0 2.1.4 2.7 1.1 2.7.6 0 1.1-.3 1.3-.5.1-.2.2-.3.4-.1l.4.3c.1.1.2.3 0 .7-.3.5-1 1.8-2.9 1.8-1.3 0-2.3-1-2.6-2.5h-.1c-.8.9-2 1.7-3.6 2.2-.7.2-1.4.2-2.2.2-.9 0-2.2-.7-2.2-3 0-1.7.8-3.1 3.7-4.4 1.6-.7 3.6-1.6 4.1-2.1v-2.3c-.1-.6-.1-1.6-.5-2.1s-1.1-.8-2.2-.8c-.7 0-1.9.3-2.4.8s-.2 1-.2 1.7c0 1.3-.4 2.1-1.9 2.1-.6 0-.9-.3-.9-1.2 0-1.2 1-2.6 2.5-3.4 1.5-.9 2.8-1.3 4.5-1.3 1.7 0 2.4.5 2.9 1 .8.8.8 1.6.8 2.6v7.6zm-2.7-3.7c-1.3 1-4.9 1.7-4.9 4.8 0 1.4.8 2 1.9 2 1.1 0 3-1.3 3-2.3v-4.5zM243 55.2v8.6c0 .6.2 1.1 1 1.1h1.6c.3 0 .4.1.4.3v.6c0 .2-.1.4-.2.4-.3 0-1.9-.1-4.1-.1-2.3 0-3.8.1-4.1.1-.2 0-.3-.1-.3-.4v-.6c0-.3.1-.3.5-.3h1.8c.4 0 .8-.3.8-.9V52.1c0-2.6 0-5.9-.1-6.9-.1-1.2-.7-1.8-1.8-2.2l-.7-.3c-.2-.1-.2-.1-.2-.2v-.3c0-.1.1-.2.3-.3 1.3-.6 2.9-1.2 4.3-2.1.3-.2.6-.3.8-.3.3 0 .3.2.3.7 0 2-.1 9.6-.1 11.7l-.2 3.3zM249.7 55.5c0-1.2-.2-1.9-2.1-2.2-.3 0-.3-.1-.3-.3v-.3c0-.1.1-.2.3-.3 1.2-.4 2.6-1 4-1.8.3-.1.5-.2.7-.2.2 0 .2.2.2.4-.1.6-.1 2.9-.1 6v7.1c.1.7.2 1 .6 1h1.7c.3 0 .4.1.4.3v.6c0 .3-.1.4-.3.4-.3 0-2-.1-3.5-.1-2.1 0-3.6.1-4 .1-.2 0-.3-.1-.3-.3v-.7c0-.2.1-.3.4-.3h1.8c.4 0 .5-.1.6-.7v-3.3l-.1-5.4zM248 44.3c0-.9.8-1.9 2.2-1.9 1.3 0 1.9 1 1.9 1.8 0 1-.7 2-2.1 2-.8 0-2-.7-2-1.9M258.9 52.6h-2.5c-.2 0-.3-.1-.2-.4l.1-1.1c0-.2.1-.3.4-.3h2.1v-.7c0-3.6 1-6 2.5-7.6 1.9-2.1 4-2.9 6-2.9 1.7 0 3.3.7 3.3 2.1 0 .9-1 1.6-1.5 1.6-.4 0-.7-.1-1-.2-.3-.2-.7-.7-.9-.8-.5-.6-1-.8-1.7-.8-1 0-1.9.3-2.7 1.3-1.4 1.7-1.3 4.9-1.3 7.5v.7h4.4c.3 0 .3.2.3.4l-.2 1.2c0 .1-.2.2-.5.2h-4V64.2c.1.6.2 1 1 1h2.1c.3 0 .4.1.4.3v.6c0 .3-.1.4-.3.4-.2 0-1.6-.1-4.4-.1-2 0-3.9.1-4.2.1-.2 0-.3-.1-.3-.3v-.8c0-.2.1-.3.4-.3h1.8c.7 0 .8-.4.9-1.3V52.6z"
       id="path8" />
    <path
       class="text-usc-full"
       d="M267.6 64.1c-1.7-2-2-3.4-2-6 0-1.9 1-4.2 3.2-5.9 1.9-1.5 3.7-1.8 4.9-1.8 2 0 4 1 5.1 2.1 1.6 1.7 2.5 3.6 2.5 6 0 4-3.6 8.1-8.1 8.1-1.8 0-4-.7-5.6-2.5m10.6-5.9c0-4.1-3-6.6-4.8-6.6-1 0-1.9.2-2.8 1.2-1.4 1.5-1.9 3-1.9 5.8 0 2.1.2 3.4 1.4 5.1.8 1.2 1.9 1.9 3.6 1.9 2.7-.1 4.5-3.5 4.5-7.4M284.2 56.4c0-1.9-.3-2.2-1.3-2.8l-.7-.4c-.2-.1-.3-.1-.3-.3v-.2c0-.1.1-.2.3-.3l3.6-1.9c.2-.1.4-.1.5-.1.2 0 .3.2.3.4l.2 2.5h.1c1.1-1.7 2.8-3.2 4.4-3.2 1.2 0 1.9.8 1.9 1.6 0 1.1-.9 1.8-1.5 1.8-.4 0-.8-.1-1.1-.3-.3-.2-.7-.3-1.2-.3-.6 0-1.5.4-2.2 1.5-.2.4-.4 1.1-.4 1.2v7.7c0 1.1.3 1.5 1 1.5h1.7c.2 0 .3.1.3.3v.7c0 .2 0 .3-.2.3s-1.9-.1-3.9-.1c-2.3 0-3.8.1-4 .1-.1 0-.2-.1-.2-.4v-.6c0-.3.1-.3.4-.3h1.4c.6 0 .8-.2.8-.7v-4.4l.1-3.3zM308.8 64.2c0 .6.3.8.8.8h1.2c.3 0 .4.1.4.3v.6c0 .3-.1.4-.3.4-.3 0-1.4-.1-3.5-.1-1.9 0-3 .1-3.3.1-.2 0-.3-.1-.3-.4v-.6c0-.3.1-.3.5-.3h1.1c.4 0 .7-.2.7-.8 0-1 .1-2.1.1-3.1v-4.8c0-1.5 0-2.5-1.1-3.3-.9-.7-1.8-.7-2.7-.7-.6 0-1.9.3-3 1.4-.7.8-.8 1.8-.8 2.5v7.6c0 1 .1 1.2.9 1.2h.9c.3 0 .4.1.4.4v.6c0 .2-.1.3-.3.3-.3 0-1.2-.1-3.2-.1-1.9 0-3 .1-3.3.1-.2 0-.3-.1-.3-.3v-.7c0-.2.1-.3.4-.3h1.1c.5 0 .7-.1.7-.7v-8.6c0-1.1-.6-1.7-1.5-2.2l-.3-.1c-.3-.1-.3-.2-.3-.3v-.2c0-.2.1-.3.3-.4l3.1-1.8c.3-.1.5-.3.7-.3.2 0 .3.1.3.4l.3 2.2h.1c1.1-1.3 3.2-2.7 5-2.7 1.1 0 2.2.2 3.1.8 1.1.7 2 2.6 2 3.5l.1 9.6zM314.9 55.5c0-1.2-.2-1.9-2.1-2.2-.3 0-.3-.1-.3-.3v-.3c0-.1.1-.2.3-.3 1.2-.4 2.6-1 4-1.8.3-.1.5-.2.7-.2.2 0 .2.2.2.4-.1.6-.1 2.9-.1 6v7.1c.1.7.2 1 .6 1h1.7c.3 0 .4.1.4.3v.6c0 .3-.1.4-.3.4-.3 0-2-.1-3.5-.1-2.1 0-3.6.1-4 .1-.2 0-.3-.1-.3-.3v-.7c0-.2.1-.3.4-.3h1.8c.4 0 .6-.1.6-.7v-3.3l-.1-5.4zm-1.7-11.2c0-.9.8-1.9 2.2-1.9 1.3 0 1.9 1 1.9 1.8 0 1-.7 2-2.1 2-.8 0-2-.7-2-1.9M331.8 61.8c0 2.1.4 2.7 1.1 2.7.6 0 1.1-.3 1.3-.5.1-.2.2-.3.4-.1l.4.3c.1.1.2.3 0 .7-.3.5-1 1.8-2.9 1.8-1.3 0-2.3-1-2.6-2.5h-.1c-.8.9-2 1.7-3.6 2.2-.7.2-1.4.2-2.2.2-.9 0-2.2-.7-2.2-3 0-1.7.8-3.1 3.7-4.4 1.6-.7 3.6-1.6 4.1-2.1v-2.3c-.1-.6-.1-1.6-.5-2.1s-1.1-.8-2.2-.8c-.7 0-1.9.3-2.4.8s-.2 1-.2 1.7c0 1.3-.4 2.1-1.9 2.1-.6 0-.9-.3-.9-1.2 0-1.2 1-2.6 2.5-3.4 1.5-.9 2.8-1.3 4.5-1.3 1.7 0 2.4.5 2.9 1 .8.8.8 1.6.8 2.6v7.6zm-2.7-3.7c-1.3 1-4.9 1.7-4.9 4.8 0 1.4.8 2 1.9 2 1.1 0 3-1.3 3-2.3v-4.5z"
       id="path10" />
  </g>
  <g
     id="g18">
    <path
       class="icon-shield"
       d="M49.8 44.3c-3.4 8.3-9.9 19.7-21.7 26.9C16.3 64 9.8 52.7 6.4 44.4c-3.2-7.6-4.3-14.1-4.6-16 1.4-.8 2.8-1.2 4.4-1.2 1.1 0 2.7.2 3.6.5l.5.1c.5.1 1 .3 1.5.4 1.7.5 3.7 1 5.2 1 1.7 0 4.3-.2 7.2-1.2.8-.3 1.8-.6 2.9-.7l1-.1h.1l1.5.1c.9.2 1.8.4 2.5.7 2.9 1 5.5 1.2 7.2 1.2 1 0 2.3-.2 4.1-.7.7-.2 1.5-.4 2.2-.6l.8-.2c.9-.3 2.5-.5 3.6-.5 1.6 0 3 .4 4.4 1.1-.4 1.8-1.5 8.3-4.7 16M1 16l17.1 3.8c-.2.3-.3.5-.4.8L1 18.3V16m.6-6.3l17.8 8.2c-.3.4-.7.8-.9 1.2L1.1 14.3c.1-1.5.3-3 .5-4.6M2.1 7c.7.2 2 .4 3.8.6L20.3 17l-.6.6L1.9 8c.1-.4.1-.7.2-1m7.7.8c1.9 0 3.6-.2 5.2-.5l7.3 8.2c-.6.3-1.1.7-1.6 1.1l-12-8.8h1.1m9.3-1.5l4.8 8.5c-.3.1-.6.3-1 .4L16.8 7c.8-.3 1.6-.5 2.3-.7m6.4-3.1L27 14.1c-.8.1-1.6.2-2.4.5l-4.1-8.8c2.1-.9 3.7-1.8 5-2.6M28 1.3c.4.3.7.6 1.1.9L28.5 14h-.8L27 2.2c.4-.4.8-.7 1-.9m2.6 1.9c1.7 1.1 3.4 1.9 4.9 2.5l-4.1 8.8c-.8-.2-1.5-.4-2.3-.5l1.5-10.8zm6.3 3.1c1 .4 1.8.6 2.3.7L33 15.2c-.3-.2-.6-.3-1-.4l4.9-8.5zm4.2 1c1.8.3 3.7.5 5.6.5h.7l-12.1 8.8c-.5-.4-1-.8-1.6-1.1l7.4-8.2zm9 .3c1.8-.2 3.2-.5 3.9-.6.1.3.1.6.2.9l-17.9 9.6-.6-.6 14.4-9.3zm4.4 2c.2 1.6.4 3.2.5 4.7l-17.4 4.9c-.3-.5-.6-.9-1-1.3l17.9-8.3zm.6 8.7l-16.8 2.2c-.1-.3-.3-.5-.4-.8L55.1 16v2.3M50 21.9c-1.1 0-2.8.2-3.9.5l-.8.2c-.7.2-1.5.4-2.3.6-1 .3-2.5.6-3.7.7-.1-1-.4-1.9-.8-2.8L55 19.9c0 1.1-.1 2.2-.1 3.1-1.4-.7-3.2-1.1-4.9-1.1m0 2.1c-1.1 0-2.8.2-3.9.5l-.8.2c-.7.2-1.5.4-2.3.6l.1.5-.1-.4c-1.1.3-2.7.7-3.9.7-1.6 0-4.1-.2-6.8-1.2-.7-.2-1.6-.5-2.6-.7-.6-.1-1.2-.2-1.7-.2-.4 0-.8 0-1.2.1-1.1.1-2.2.5-3.1.8-2.8 1-5.3 1.2-6.9 1.2-1.4 0-3.3-.5-4.9-1l-2-.6c-1-.3-2.6-.5-3.9-.5-1.7 0-3.3.4-4.8 1.2 0-.3-.1-.7-.1-1 1.5-.8 3.3-1.2 5-1.2 1.1 0 2.7.2 3.6.5l2 .6.1-.5v.4c1.8.5 3.7 1 5.2 1 1.7 0 4.3-.2 7.2-1.3.8-.3 1.8-.6 2.9-.7l1-.1 1.5.1c.9.2 1.8.4 2.5.7 2.9 1 5.5 1.2 7.2 1.2 1 0 2.3-.2 4.1-.7.8-.2 1.5-.4 2.3-.7l.8-.2c.9-.3 2.5-.5 3.6-.5 1.7 0 3.4.4 4.9 1.2 0 .4-.1.8-.1 1.1-1.6-.7-3.3-1.1-4.9-1.1m-21.9-2.1c-.4 0-.8 0-1.2.1-1.1.1-2.2.5-3.1.8-2.4.8-4.6 1.1-6.1 1.2.7-5.1 5.1-9 10.3-9 5.2 0 9.6 3.9 10.3 9-1.6-.1-3.7-.3-6-1.2-.7-.2-1.6-.6-2.6-.7-.5-.1-1.1-.2-1.6-.2M1 19.9l16.5 1.2c-.4.9-.6 1.9-.8 2.9-1.3-.1-3.1-.5-4.7-.9l-2-.6c-1-.3-2.6-.5-3.9-.5-1.8 0-3.6.4-5.1 1.2.1-1 0-2.1 0-3.3m49 6.2c-1.1 0-2.8.2-3.9.5l-.8.2c-.7.2-1.4.4-2.2.6l.1.5-.2-.4c-1.7.5-3 .7-3.9.7-1.6 0-4.1-.2-6.8-1.2-.8-.3-1.7-.6-2.6-.7-1-.2-1.9-.2-2.8-.1-1.1.2-2.2.5-3.1.8-2.8 1-5.3 1.2-6.9 1.2-1.4 0-3.3-.5-4.9-1l-.1.5.1-.5c-.5-.1-1-.3-1.4-.4l-.6-.1c-1-.3-2.6-.5-3.9-.5-1.6 0-3.1.4-4.6 1.1 0-.2-.1-.6-.2-1.1 1.6-.7 3.2-1.2 4.9-1.2 1.1 0 2.7.2 3.6.5l2 .6.1-.5-.1.5c1.8.5 3.7 1 5.2 1 1.7 0 4.3-.2 7.2-1.2.8-.3 1.8-.6 2.9-.8l1-.1h.1l1.5.1c.9.2 1.8.4 2.5.7 2.9 1 5.5 1.2 7.2 1.2 1 0 2.3-.2 4.1-.7.8-.2 1.5-.4 2.3-.7l.8-.2c.9-.3 2.5-.5 3.6-.5 1.7 0 3.3.4 4.7 1.2-.1.4-.1.8-.1 1-1.7-.6-3.2-1-4.8-1m6.1-10.3l-.1-1.7c-.1-1.6-.3-3.2-.6-4.9l-.2-1.1c-.1-.6-.2-1.2-.4-1.8l-.1-.5-.5.1s-.8.2-2.2.5l-3.3.4c-.7 0-1.4.1-2.1.1-1.9 0-3.8-.2-5.6-.5l-1.2-.2h-.1s-1-.2-2.4-.7l-1.5-.6c-1.5-.6-3.4-1.5-5.2-2.7L29.2 1c-.3-.2-.6-.5-.8-.7L28 0l-.3.3s-.3.3-.8.7l-1.5 1.1c-1.3.8-3 1.8-5.2 2.7l-1.5.6c-.7.3-1.5.5-2.4.7h-.1l-1.3.3c-1.6.3-3.3.4-5.1.4-.9 0-1.7 0-2.5-.1L4 6.4C2.7 6.2 1.9 6 1.8 6l-.5-.2-.1.5-.3 1.5-.2 1.5c-.3 1.6-.4 3.2-.5 4.8l-.1 1.7c-.1.8-.1 1.6-.1 2.3v1.6c.1 4.6.6 7.8.7 8.1.1.4 1 7.9 4.7 16.8 3.5 8.4 10.2 20 22.2 27.3l.5.3.5-.3c12-7.3 18.6-18.9 22.1-27.3 3.7-9 4.7-16.5 4.7-16.9 0-.3.6-3.4.7-8v-1.6-2.3"
       id="path14" />
    <path
       class="icon-shield"
       d="M42 38.9c-.2.2-.3.2-.6.2h-3.7c-.4 0-.8-.4-.8-.8s.4-.8.8-.8H41.4c.4 0 .8.4.8.8 0 .3 0 .5-.2.6m-.7 1.4c-.1.1-.3.2-.6.2h-2.3c-.4 0-.6-.3-.7-.8H41.5c0 .2-.1.4-.2.6m-1 9.6h-1.5l-.4-8.8h2.3l-.4 8.8zm1 1.2c0 .4-.3.6-.6.6h-2.2v.3-.3c-.4 0-.6-.3-.6-.6 0-.4.3-.6.6-.6h2.1c.4 0 .7.3.7.6m-1.7 5.5c-.3 0-.5-.2-.5-.5l-.2-3.7h1.3l-.2 3.7c0 .3-.2.5-.4.5m-3-20.9c0-.5.2-.9.4-1.3.3-.5.5-1.1.4-1.8.4.2.8.4 1.2.8-.1.1-.2.2-.2.3 0 0-1.5 1.5-.4 3.3h-.5c-.3-.1-.9-.4-.9-1.3m3.2-3.2c.1-.2.1-.5 0-.7.6.6 1.3 1.4 1.3 2.5 0 1.3-.8 2.3-1.2 2.7h-.2c-.3-.4-.8-1.2-.2-2.1.1-.2.6-.9.7-1.1.1-.2.1-.3.1-.3-.1.1-.2.3-.2.3-.1.2-.6.7-.8.8-.8 1-.3 2-.1 2.4h-.7c-1.2-1.6.1-2.8.2-2.9l.3-.3c.3-.4.6-.7.8-1.3m1.8.5c.3-.3.5-.5.7-.6-.2 1.4.6 2.7.6 2.8.3 1.2-.8 1.7-1.1 1.9H40.9c.4-.6 1-1.5 1-2.7-.1-.6-.3-1.4-.3-1.4m.8 4.3c.7-.4 1.4-1.2 1-2.4 0 0-.8-1.6-.4-2.9l.1-.4-.5.1c-.1 0-.7.1-1.4.9-.7-1.1-1.8-1.8-1.9-1.9l-1.1-.7.7 1.1c.1.2.5.8.3 1.3l-.3.6c-.8-.8-1.9-1.1-1.9-1.1l-.6-.2.2.6c.3.8.1 1.3-.2 1.9-.2.5-.5 1-.5 1.6 0 .8.4 1.3.8 1.6-.3.3-.5.6-.5 1 0 .5.3 1 .7 1.2.1.7.4 1.1.8 1.4l.4 9c-.5.1-1 .6-1 1.2s.5 1.1 1.1 1.2l.2 3.8c0 .6.5 1.1 1.1 1.1.6 0 1.1-.5 1.1-1l.2-3.8c.6-.1 1.1-.6 1.1-1.2s-.4-1.1-1-1.2l.4-9c.1-.1.2-.1.3-.2.3-.3.4-.7.4-1.2.1-.1.2-.1.3-.2.3-.3.4-.6.4-1 .1-.6 0-.9-.3-1.2M18.2 39.2h-3.7c-.4 0-.8-.4-.8-.8 0-.2.1-.4.2-.6.2-.2.3-.2.6-.2h3.6c.4 0 .8.4.8.8.1.4-.3.8-.7.8m-.2 1.1c-.1.1-.3.2-.6.2h-2.3c-.4 0-.6-.3-.8-.8H18.1c.1.3 0 .5-.1.6m-1 9.6h-1.5l-.4-8.8h2.3l-.4 8.8zm1 1.3c0 .2-.1.3-.2.5-.1.1-.3.2-.5.2h-2.2v.3-.3c-.4 0-.6-.3-.6-.6s.3-.6.6-.6h2.1c.6-.2.8.1.8.5m-1.7 5.4c-.3 0-.5-.2-.5-.5l-.2-3.7h1.3l-.2 3.7c.1.3-.2.5-.4.5m-3-20.9c0-.5.2-.9.4-1.3.3-.5.5-1.1.4-1.8.4.2.8.4 1.2.8-.1.1-.2.2-.2.3 0 0-1.5 1.5-.4 3.3h-.2c-.1 0-.2 0-.3.1-.1-.1-.9-.4-.9-1.4m3.2-3.2c.1-.2.1-.5 0-.7.6.6 1.3 1.4 1.3 2.5 0 1.3-.8 2.3-1.2 2.7h-.2c-.3-.4-.8-1.2-.2-2.1.1-.2.6-.9.7-1.1.1-.2.1-.3.1-.3-.1.1-.2.3-.2.3-.1.2-.6.7-.8.8-.8 1-.3 2-.1 2.4h-.7c-1.2-1.6.1-2.9.2-2.9l.3-.3c.4-.4.6-.7.8-1.3m1.8.5c.3-.3.5-.5.7-.6-.1 1.4.6 2.7.6 2.7.3 1.2-.8 1.7-1.1 1.9H17.6c.4-.6 1-1.5 1-2.7-.1-.5-.3-1.3-.3-1.3m.8 4.4c.7-.4 1.4-1.2 1-2.4 0 0-.9-1.6-.4-2.9l.1-.4-.5.1c-.1 0-.7.1-1.4.9-.7-1.1-1.8-1.8-1.9-1.9l-1.1-.8.7 1.1c.1.2.5.9.3 1.3l-.3.6c-.8-.8-1.9-1.1-1.9-1.1l-.6-.2.2.6c.3.8.1 1.3-.2 1.9-.2.5-.5 1-.5 1.6 0 .9.4 1.4.8 1.6h-.1c-.3.3-.4.6-.4 1 0 .5.3 1 .7 1.2.1.6.3 1.1.8 1.4l.4 9c-.5.1-.9.6-.9 1.2s.5 1.1 1.1 1.2l.2 3.8c0 .6.5 1.1 1.1 1.1.6 0 1.1-.5 1.1-1.1l.2-3.8c.3 0 .5-.1.7-.3.2-.2.4-.5.4-.9 0-.6-.4-1.1-1-1.2l.4-9c.1-.1.3-.1.4-.2.3-.3.4-.7.4-1.2.4-.2.7-.7.7-1.2-.1-.4-.2-.8-.5-1M31.5 40.6c-.2.3-.5.4-.8.4h-5.2c-.7 0-1.2-.5-1.2-1.2s.6-1.2 1.2-1.2h5.2c.7 0 1.2.5 1.2 1.2 0 .3-.1.6-.4.8m-1.9 2.1h-3.2c-.5 0-1-.6-1.1-1.1H30.9c-.2.5-.7 1.1-1.3 1.1M29.2 56h-2.3l-.6-12.7H29.8L29.2 56zm1.4 1.6c0 .6-.5 1-1 1h-3c-.6 0-1-.5-1-1 0-.6.5-1 1-1h3c.6 0 1 .5 1 1m-1.8 7c0 .2-.1.4-.2.6-.1.1-.3.2-.5.2s-.4-.1-.5-.2c-.1-.1-.2-.3-.2-.6l-.4-5.3h2l-.2 5.3zm-5.1-28.5c0-.7.3-1.3.6-1.9.4-.8.8-1.6.5-2.7.5.2 1.3.6 1.9 1.2l-.2.2c-.1.1-.2.3-.3.4 0 0-2.2 2.1-.5 4.7h-.3c-.2 0-.3 0-.5.1 0-.1-1.2-.6-1.2-2m4.4-4.5c.2-.5.1-1 0-1.4.9.7 2.3 2.1 2.3 3.9 0 1.9-1.2 3.4-1.7 3.9h-.1c-.2-.4-.5-1-.5-1.6 0-1.3.6-2.1.6-2.1s-.8.5-.9 1.7c-.1.6.1 1.2.4 2h-.8c-.3-.4-1.1-1.7-.3-3 .2-.3 1-1.3 1.1-1.5.1-.2.1-.5.1-.5-.1.2-.3.4-.3.4-.2.2-.9.9-1.1 1.2-1.2 1.5-.2 3.1 0 3.5h-.5c-1.8-2.3.1-4.2.2-4.3.1-.1.2-.3.3-.4.5-.6.9-1 1.2-1.8m3.8.3c-.4 1.8.2 3.4.3 3.4.5 1.7-.7 2.5-1.1 2.7h-1.6c.6-.7 1.5-2.1 1.5-3.9 0-.5-.1-.9-.2-1.3.4-.5.8-.8 1.1-.9m-.2 6.4c.6-.5 1.5-1.5 1-3.2 0 0-.7-1.7-.1-3.6l.1-.4-.5.1s-.8.1-1.8 1.1c-.9-1.9-2.8-3-2.9-3.1l-1-.6.6 1s.6 1.1.4 1.9c-.1.3-.3.6-.4.8-1-1.1-2.6-1.5-2.6-1.5l-.6-.1.2.5c.5 1.1.1 1.9-.3 2.8-.3.7-.6 1.3-.6 2.2 0 1.2.6 1.9 1.2 2.3-.4.3-.7.9-.7 1.4 0 .7.4 1.3 1 1.6.1.7.5 1.4 1.1 1.7l.6 12.9c-.8.1-1.3.8-1.3 1.6s.7 1.5 1.5 1.6l.2 5.4c0 .4.1.7.4 1 .3.3.6.4 1 .4s.7-.1 1-.4c.3-.3.4-.6.4-1l.2-5.4c.9 0 1.5-.7 1.5-1.6 0-.8-.6-1.5-1.4-1.6l.6-13c.6-.4 1-1 1.1-1.7.2-.1.3-.2.4-.3.3-.3.5-.8.5-1.3 0-.6-.3-1.2-.8-1.5"
       id="path16" />
  </g>
</svg>
